<svg width="1510" height="1510" viewBox="0 0 1510 1510" fill="none" xmlns="http://www.w3.org/2000/svg">
<path d="M755 0.0266113C338.72 0.0266113 0.0266113 338.667 0.0266113 755C0.0266113 1171.33 338.72 1509.97 755 1509.97C1171.28 1509.97 1509.97 1171.33 1509.97 755C1509.97 338.667 1171.28 0.0266113 755 0.0266113ZM74.4399 755C74.4399 670.416 90.6746 589.693 119.024 514.813C160.259 526.089 196.888 579.787 196.888 579.787L189.117 685.593C242.606 686.765 341.437 763.484 341.437 763.484L333.297 799.552L356.551 854.188C389.103 843.355 522.418 933.251 522.418 933.251L502.287 1026.27L491.417 1106.87L510.021 1158.02L533.276 1197.55L590.645 1206.14L609.249 1306.84L601.479 1328.59L565.833 1365.8V1408.22C282.42 1326.04 74.4333 1064.58 74.4333 754.996L74.4399 755ZM755 1435.55C723.688 1435.55 693.047 1432.66 662.855 1428.59L682.115 1367.32L714.312 1345.68L747.229 1334.77L748.792 1300.68L770.485 1258.83H826.292V1165.81L854.193 1151.85L875.13 1133.26V1097.58H841.813L813.896 1063.49H733.27L742.583 1020.1L716.228 1001.51H666.608L655.775 950.705L553.458 944.09L550.369 900.705C550.369 900.705 401.503 804.56 412.356 772.008V745.705L440.257 755.002L457.34 710.029L485.61 714.664L499.204 762.711L542.573 755.002L553.443 710.029C553.443 710.029 583.459 630.889 631.23 627.841L651.115 613.882L657.328 569.768L617.006 545.705L631.235 525.497L711.574 528.622L730.178 471.305C730.178 471.305 674.329 449.507 677.454 427.841H624.771L615.459 398.414H582.912L564.308 469.69C564.308 469.69 514.709 502.321 475.948 475.94C437.172 449.56 421.661 362.737 455.776 330.153L469.719 292.965L398.407 278.643L372.052 296.091C372.052 296.091 294.369 290.336 265.531 283.304C362.249 182.94 489.277 112.371 631.891 86.1443C629.781 105.91 631.526 133.514 656.527 137.942C696.057 144.921 672.803 184.452 679.781 184.452C686.75 184.452 693.724 217.031 693.724 217.031H716.979V304.219C716.979 304.219 773.957 329.792 773.957 364.688H797.212C797.212 364.688 794.884 312.371 815.805 305.391L827.436 303.073L850.69 265.86C850.69 265.86 906.508 220.521 929.764 222.839L935.571 148.412L893.711 133.308C893.711 133.308 884.883 108.152 882.305 86.7973C1070.56 122.631 1231.2 236.197 1330.14 392.811C1309.25 415.128 1247.05 477.472 1203 477.472C1149.52 477.472 1079.76 384.451 1079.76 384.451L987.899 430.961V463.513L1061.15 477.472L1103.01 514.685L1098.37 533.279L1028.6 551.872C1028.6 551.872 905.348 612.341 884.416 614.659C863.489 617.002 884.416 691.404 884.416 691.404H941.968C941.968 691.404 1028.6 654.216 1061.15 656.535C1093.7 658.852 1106.51 710.024 1106.51 710.024H1128.59C1128.59 710.024 1200.69 561.197 1233.23 561.197C1265.8 561.197 1293.7 579.791 1293.7 579.791L1298.35 684.427L1337.88 698.385L1349.5 755C1349.5 755 1395.1 733.776 1434.31 730.287C1434.59 738.568 1435.55 746.641 1435.55 755C1435.55 1130.27 1130.25 1435.55 754.985 1435.55H755Z" fill="#5FBDFF"/>
<path d="M942.56 355.387C942.56 355.387 966.972 325.152 966.972 320.491C966.972 315.855 987.899 286.767 987.899 286.767L914.659 278.642L896.055 298.407L904.195 317C904.195 317 896.055 335.62 896.055 342.599C896.055 349.578 942.56 355.385 942.56 355.385V355.387Z" fill="#609966"/>
<path d="M1271.61 717L1249.51 685.593V632.104L1216.96 621.635L1178.89 696.062V742.573L1122.38 754.994L1077.44 733.276L987.905 722.442L951.859 754.994L896.052 759.656L792.172 860.359V950.697H875.125L886.756 979.76L959.61 976.635C956.485 1002.94 1005.35 1075.1 1005.35 1075.1C1005.35 1075.1 1003.02 1208.82 1012.33 1213.49C1021.63 1218.12 1061.16 1271.61 1061.16 1271.61L1118.14 1279.76C1118.14 1279.76 1162.32 1183.25 1163.47 1153.02C1164.65 1122.78 1192.55 1084.42 1191.38 1057.68C1190.22 1030.93 1291.38 971.637 1291.38 971.637L1298.36 923.954C1298.36 923.954 1259.99 878.615 1262.31 871.637C1264.63 864.657 1322.77 835.595 1322.77 835.595L1334.4 786.741L1264.63 769.319L1271.61 717Z" fill="#6CAB73"/>
<path d="M610.813 204.587L568.953 185.993L511.584 224.796V192.244L485.605 211.203L496.074 254.224C496.074 254.224 487.533 319.355 485.605 323.989C483.678 328.651 508.496 364.692 508.496 364.692C508.496 364.692 530.225 362.791 536.397 345.733C542.569 328.651 551.919 290.629 559.652 278.651C567.386 266.671 596.865 278.651 596.865 278.651C596.865 278.651 578.261 327.115 585.996 328.651C593.74 330.161 652.678 337.948 652.678 337.948L671.282 287.948V260.421C671.282 260.421 610.813 247.973 610.813 241.801L610.813 204.587Z" fill="#609966"/>
</svg>
